PathFileType	4	(X/Y/Z)	62_2_113_p1_0-329.trc
DataRate	CameraRate	NumFrames	NumMarkers	Units	OrigDataRate	OrigDataStartFrame	OrigNumFrames
59.0	59.0	5	27	m	59.0	206	330
Frame#	Time	RHip			RKnee			RAnkle			RBigToe			RSmallToe			RHeel			LHip			LKnee			LAnkle			LBigToe			LSmallToe			LHeel			Neck			Head			Nose			RShoulder			RElbow			RWrist			RThumb			RIndex			RPinky			LShoulder			LElbow			LWrist			LThumb			LIndex			LPinky			
		X1	Y1	Z1	X2	Y2	Z2	X3	Y3	Z3	X4	Y4	Z4	X5	Y5	Z5	X6	Y6	Z6	X7	Y7	Z7	X8	Y8	Z8	X9	Y9	Z9	X10	Y10	Z10	X11	Y11	Z11	X12	Y12	Z12	X13	Y13	Z13	X14	Y14	Z14	X15	Y15	Z15	X16	Y16	Z16	X17	Y17	Z17	X18	Y18	Z18	X19	Y19	Z19	X20	Y20	Z20	X21	Y21	Z21	X22	Y22	Z22	X23	Y23	Z23	X24	Y24	Z24	X25	Y25	Z25	X26	Y26	Z26	X27	Y27	Z27	
206	3.4915254237288136	0.34494526861779934	0.43344858788906027	0.2590922521178934	0.32198640967294684	0.7425363775101409	0.5291779044388413	0.3139965586538196	1.0093781863144289	0.7967824190457674	0.2823448070191717	0.9407415335060613	0.9472001936037666	0.3507111298854206	0.957888303228624	0.9278166847089746	0.30529858998129117	1.088243537727832	0.8162849354132187	0.1475830797166499	0.4816982335287567	0.23254127808569972	0.16745234444195845	0.7264258061579929	0.5088593936501964	0.16959722288092496	1.021071037346531	0.7783828693560253	0.10936459471909372	0.8919370378492064	0.9315056508273167	0.07869202458376723	0.9820708241604673	0.889680651236965	0.19456427272872928	1.108729447426822	0.7917179931578647	0.2536951020014481	0.085656295074004	-0.20678259020076342	0.25323673328012297	-0.11027510918809738	-0.3580905480575357	0.23442623327260848	-0.06634823732472991	-0.24074060410818235	0.4191877654018062	0.13111821156507755	-0.09509412205229682	0.4782004077635457	0.28545691063158124	0.12279285328175092	0.5580380992831169	0.38323157491175364	0.3536081790007229	0.5154889925518519	0.3972053869527591	0.47739269952209384	0.5373394400380385	0.4180149134310494	0.4839523241075062	0.5412517758967594	0.447480131878636	0.4433397901828247	0.10158250014222778	0.18599837192817573	-0.1813292482150885	0.014946563082891598	0.39880779355556584	0.01919035039024718	-0.07438868071439335	0.5033214250597433	0.23516411036101803	-0.08819406762619117	0.5221537148506542	0.3308680127153009	-0.1377846234020435	0.5241006731911286	0.3509553528526068	-0.12104145280266272	0.6235813278790734	0.30377479796536766
207	3.5084745762711864	0.35114029950353776	0.4438217818518454	0.2553535976295711	0.31531141034801097	0.7303704755272973	0.5319217556715653	0.3276214245837409	1.0395442776352648	0.7931856912707294	0.2831683232363931	0.9427231625076463	0.9477258654323969	0.3624432911540347	0.9731572669084638	0.9275957914979038	0.319764365737083	1.1198860303338531	0.8132778808845288	0.1476220565341774	0.4818902409122739	0.2325898754804592	0.16847968478194603	0.730203808261266	0.5122186706149027	0.1646892153125329	1.0200414653177667	0.778263425666333	0.10919941682504854	0.8919330583156746	0.9314625176662725	0.07863519722704267	0.9822598437663145	0.8896500696296472	0.19598517959215236	1.1126563813013048	0.7943157239117873	0.25363434726102274	0.08556635605581354	-0.20688904147491563	0.2573072809876143	-0.11000551333585133	-0.3584180498081589	0.23450758431595414	-0.06633892715137484	-0.2407600956227674	0.4192210515404253	0.13135135276549004	-0.09514057200245345	0.4784507644955336	0.2831854904064374	0.11963226247758084	0.5579686051635314	0.38310777147093344	0.35366061108439084	0.5186823940710349	0.4004006081665401	0.4809905839466849	0.5374317105668937	0.4180903959966186	0.4839713393348172	0.5417736078853872	0.44845040412907394	0.443141145037807	0.10322216304937526	0.1944193164042815	-0.19001659901818424	0.010483809071417981	0.3980445651595287	0.019287561697012397	-0.0753079396407528	0.5049942080388532	0.2379205635686218	-0.09342052857588139	0.5168319955371353	0.3292456166310789	-0.14746021767030354	0.5084405334368358	0.3511120873919477	-0.12042509863842532	0.6257589829770651	0.30712777703962013
208	3.5254237288135593	0.3449053030816619	0.43367209006727814	0.2591017878281959	0.31523077879724865	0.7302283292456326	0.5317324126228355	0.32598814314718955	1.0340863481591847	0.7896506607167945	0.2832610564806926	0.942821837647189	0.9477429438718232	0.36238498631946287	0.9719139708143211	0.9236315936086329	0.31166962138654186	1.095277335032158	0.8072689087275775	0.14748349859153134	0.4815019316982477	0.2328360538905974	0.16881542386583342	0.7112641890294782	0.5127996063950593	0.16446301105798525	1.0197939910852813	0.778350162052094	0.1092046277409732	0.8919451815946876	0.9315166651545472	0.07858624830115217	0.9823524550249026	0.8897502525575449	0.18968736171629727	1.0977941806456653	0.7958408916167207	0.24971854124231904	0.08587674653376486	-0.20688684470481242	0.2584371365415492	-0.12002860448806783	-0.35121095407594677	0.23477850545812887	-0.06628515793212497	-0.24076122178904377	0.4190184270597741	0.1314537685081174	-0.09517502593297072	0.47810176386351366	0.28537785884286493	0.1228927482957077	0.5577741689245796	0.38281567393868715	0.3536977811497887	0.5187896424855349	0.4006726636252655	0.4809043251663867	0.5375579066984417	0.41818382663424275	0.48393188520965175	0.5351877630349426	0.45331190353209533	0.4407821989439074	0.09748247733380869	0.18429668722203968	-0.18426637027500248	0.010738646926411828	0.3938498474806975	0.012982603647831954	-0.07549947692186385	0.505060869153171	0.2380709758003037	-0.10680653166510572	0.4958625611624658	0.33964878347341304	-0.15002521066843874	0.5269764956461265	0.352797690541804	-0.12732366605525203	0.6059271143898203	0.31824499506915055
209	3.542372881355932	0.34489015402217904	0.43361257591125196	0.25899165050017786	0.32184448919559633	0.7426166486194241	0.5289915198650551	0.3262259290855727	1.0346926655197122	0.790078129515728	0.2833307603168577	0.9431550789803623	0.9476436273343997	0.36268736536627744	0.9734577053334988	0.9274235220579575	0.3124716705390776	1.1051331817126842	0.8191540341661514	0.1474992301935313	0.4813907586241166	0.23272205430813456	0.1674626897942563	0.726427777638295	0.5088227220560516	0.16456024587475543	1.0199969039735584	0.7783859267359757	0.10924467326745846	0.8917669932849654	0.9315410819289216	0.07867215100472916	0.9824070571596633	0.8898426813692222	0.19607390245841186	1.1137346850127374	0.7982720348447905	0.24970271732885302	0.08577335226684737	-0.20688175725810617	0.26261471447638624	-0.11946229256682421	-0.35169865279008217	0.23892065296776846	-0.0661997754555402	-0.24087739683046916	0.41867186851186267	0.12898723548971938	-0.0983874583020345	0.47788314468773374	0.2835122338723367	0.11968171918919068	0.5578639494300524	0.3826834987519202	0.35382491088882173	0.5188432646685207	0.40047419391805766	0.4810828028055343	0.5375780659619245	0.41791387670621727	0.484112805034548	0.5414372000621696	0.44829084242143596	0.4430150521365108	0.09744089005994436	0.183934789046795	-0.18430380402227647	0.010566712603073455	0.39371634114706383	0.012886217002847257	-0.0760006952021722	0.5028037993843382	0.23427117547511006	-0.11362217065387144	0.47885496111359077	0.33655497258686184	-0.16078059372562017	0.5460898678731281	0.3374941261056251	-0.13178439580899887	0.6063672648605188	0.32113734148918666
210	3.559322033898305	0.34493105020057563	0.4355233834448361	0.2623109915402005	0.31530311714414694	0.7304986610931811	0.5317296364896057	0.32773135262728287	1.0398166194142313	0.7935277263948987	0.28351235517249873	0.9436011391282864	0.9478220948694246	0.3625471318473924	0.973266692274535	0.9277397878190243	0.31982120117894014	1.1215707637892913	0.8179263055673256	0.14741968823759447	0.48132481533993504	0.23268697801150207	0.1674810066768664	0.7267563150949847	0.508692773385285	0.1623039951049701	1.0407512757768056	0.7791491811541438	0.10929837844986202	0.8918685921174169	0.9314505718287734	0.0787111979872102	0.982021058544659	0.889657734368602	0.1959907234991828	1.1138384586925614	0.7982618954108845	0.2498185068931685	0.08395366815563186	-0.20971825408959963	0.2721671034321717	-0.11353892437414717	-0.36020723474984123	0.23920365047685235	-0.06608560888068067	-0.24088546228168178	0.4079165225517968	0.11965894810204371	-0.09321356060271906	0.47780610290278314	0.28350963777764376	0.11974627014164685	0.5576940735653346	0.3823181482822244	0.35382354615770945	0.5188587541378985	0.4005405173777717	0.48104616767017044	0.5419143620723123	0.41875065843819037	0.4840787201949664	0.5409024619581068	0.4470367886399848	0.4432223172092553	0.097327396400825	0.18345925718897035	-0.18408626983672483	0.005227985734871393	0.3825112899911491	0.01785091155788904	-0.08541997343012447	0.49136663422170257	0.2420970368409727	-0.12962233148780197	0.4703225607784018	0.3475936178974862	-0.15793171569331163	0.5366475381901746	0.3452351171410921	-0.1590927089902966	0.5582494223557476	0.32755292355062604
